# xmcd
# 
# Track frame offsets:
#     150
#     6429
#     21546
#     40059
#     53518
#     71494
#     93145
#     109901
#     127930
#     150864
#     170731
#     188114
#     207078
#     214058
#     230863
#     244387
#     266423
#     284873
#     292964
#     312399
#     332173
#     348910
# 
# Disc length: 4786
# 
# Revision: 1
# Processed by: cddbd v1.5.2PL0 Copyright (c) Steve Scherf et al.
# Submitted via: BonkEnc v1.0.8
# 
DISCID=4812b016
DTITLE=Tom Clancy - Red Storm Rising
DYEAR=1986
DGENRE=Audio Book
TTITLE0=02.01
TTITLE1=02.02
TTITLE2=02.03
TTITLE3=02.04
TTITLE4=02.05
TTITLE5=02.06
TTITLE6=02.07
TTITLE7=02.08
TTITLE8=02.09
TTITLE9=02.10
TTITLE10=02.11
TTITLE11=02.12
TTITLE12=02.13
TTITLE13=02.14
TTITLE14=02.15
TTITLE15=02.16
TTITLE16=02.17
TTITLE17=02.18
TTITLE18=02.19
TTITLE19=02.20
TTITLE20=02.21
TTITLE21=02.22
EXTD=
EXTT0=
EXTT1=
EXTT2=
EXTT3=
EXTT4=
EXTT5=
EXTT6=
EXTT7=
EXTT8=
EXTT9=
EXTT10=
EXTT11=
EXTT12=
EXTT13=
EXTT14=
EXTT15=
EXTT16=
EXTT17=
EXTT18=
EXTT19=
EXTT20=
EXTT21=
PLAYORDER=
